# xmcd
#
# Track frame offsets: 
#        150
#        23718
#        38108
#        62070
#        71213
#        83800
#        92608
#        110090
#        122460
#        142305
#        164193
#        179725
#        193635
#        205315
#        224215
#        239313
#
# Disc length: 3383 seconds
#
# Revision: 0
# Processed by: cddbd v1.5.2PL0 Copyright (c) Steve Scherf et al.
# Submitted via: ExactAudioCopy v0.99pb5
#
DISCID=000d3510
DTITLE=Various Artist - Blue Eyed Blues
DYEAR=1992
DGENRE=Blues
TTITLE0=Sonny Boy Williamson, The Yardbirds and Eric Clapton - 23 Hours 
TTITLE0=too Long
TTITLE1=Sonny Boy Williamson, The Yardbirds and Eric Clapton - Out on th
TTITLE1=e Water Coast
TTITLE2=The Yardbirds and Eric Clapton - Five Long Years
TTITLE3=The Yardbirds and Eric Clapton - I Ain't Got You
TTITLE4=The Yardbirds and Eric Clapton - Good Morning Little School Girl
TTITLE5=Howlin' Wolf, Eric Clapton and Steve Winwood - Little Red Rooste
TTITLE5=r (Rehearsal)
TTITLE6=Howlin' Wolf, Eric Clapton and Steve Winwood - Little Red Rooste
TTITLE6=r
TTITLE7=Eric Clapton, Steve Winwood and Bill Wyman - Highway 49
TTITLE8=Eric Clapton, Steve Winwood and Bill Wyman - Wang-Dang-Doodle
TTITLE9=The Yardbirds and Jeff Beck - I'm a Man
TTITLE10=The Yardbirds and Jeff Beck - The Train Kept a Rolling
TTITLE11=The Yardbirds and Jeff Beck - Jeff's Blues
TTITLE12=The Yardbirds and Jeff Beck - Steeled Blues
TTITLE13=The Yardbirds and Jeff Beck - New York City Blues
TTITLE14=Sonny Boy Williamson and Jimmy Page - It's a Bloody Life
TTITLE15=Sonny Boy Williamson and Jimmy Page - I See a Man Downstairs
EXTD=
EXTT0=
EXTT1=
EXTT2=
EXTT3=
EXTT4=
EXTT5=
EXTT6=
EXTT7=
EXTT8=
EXTT9=
EXTT10=
EXTT11=
EXTT12=
EXTT13=
EXTT14=
EXTT15=
PLAYORDER=
